<svg xmlns="http://www.w3.org/2000/svg" width="18.708" height="18.454" viewBox="0 0 18.708 18.454"><defs><style>.a{fill:#fff;opacity:0.902;}</style></defs><path class="a" d="M1247.052,2503.331c0-2.1,2.476-4.118,5.7-4.117.35,0,.672-.009,1-.009a2.213,2.213,0,0,1-.788-1.58,2.288,2.288,0,0,1,.294-1.066c-.175.011-.354.016-.537.016a4.163,4.163,0,0,1-4.415-4.153c0-2.249,2.444-4.188,5.044-4.188h5.8l-1.3.577h-1.838c1.218,1.153,1.868,2.035,1.868,3.471a4.151,4.151,0,0,1-1.636,3.158c-.935.721-1.112,1.022-1.112,1.635,0,.523,1,1.412,1.526,1.778a3.974,3.974,0,0,1,2.025,3.716c0,2.064-2.026,4.118-5.7,4.118C1249.768,2506.688,1247.052,2505.395,1247.052,2503.331Zm2.091-.614c0,1.669,1.606,3.056,3.83,3.056,3.128,0,4.218-1.3,4.218-2.971a2.622,2.622,0,0,0-.07-.59c-.246-.943-1.112-1.411-2.32-2.241a4.938,4.938,0,0,0-1.441-.228h-.057C1251.1,2499.744,1249.142,2501.1,1249.142,2502.717Zm1.246-10.309c.257,1.933,1.676,3.537,3.17,3.581s2.494-1.487,2.236-3.422-1.677-3.486-3.17-3.53h-.065C1251.1,2489.037,1250.135,2490.5,1250.389,2492.409Zm11.279,7.936v-2.884h-2.923v-1.154h2.923v-2.883h1.169v2.883h2.923v1.154h-2.923v2.884Z" transform="translate(-1247.052 -2488.235)"/></svg>