<svg xmlns="http://www.w3.org/2000/svg" width="19.958" height="16" viewBox="0 0 19.958 16"><defs><style>.a{fill:#fff;opacity:0.902;}</style></defs><path class="a" d="M1303.479,2491.2a8.224,8.224,0,0,1-2.352.635,4.062,4.062,0,0,0,1.8-2.234,8.263,8.263,0,0,1-2.6.98,4.116,4.116,0,0,0-2.99-1.275,4.066,4.066,0,0,0-4.093,4.039,4.009,4.009,0,0,0,.105.921,11.68,11.68,0,0,1-8.44-4.22,3.984,3.984,0,0,0-.554,2.031,4.025,4.025,0,0,0,1.821,3.362,4.13,4.13,0,0,1-1.854-.505c0,.016,0,.034,0,.051a4.055,4.055,0,0,0,3.284,3.961,4.159,4.159,0,0,1-1.848.069,4.093,4.093,0,0,0,3.824,2.805,8.355,8.355,0,0,1-6.061,1.673,11.712,11.712,0,0,0,6.276,1.814,11.488,11.488,0,0,0,11.65-11.492c0-.175,0-.35-.012-.523A8.264,8.264,0,0,0,1303.479,2491.2Z" transform="translate(-1283.521 -2489.307)"/></svg>