<svg xmlns="http://www.w3.org/2000/svg" width="20.58" height="15.258" viewBox="0 0 20.58 15.258"><defs><style>.a{fill:#ececed;}</style></defs><path class="a" d="M1227.644,2490.508a2.857,2.857,0,0,0-2.062-.917c-2.88-.22-7.2-.22-7.2-.22h-.01s-4.32,0-7.2.22a2.858,2.858,0,0,0-2.062.917,4.862,4.862,0,0,0-.818,2.155,34.551,34.551,0,0,0-.206,3.511v1.646a34.527,34.527,0,0,0,.206,3.511,4.842,4.842,0,0,0,.818,2.153,3.388,3.388,0,0,0,2.269.927c1.646.167,7,.218,7,.218s4.324-.008,7.2-.226a2.868,2.868,0,0,0,2.062-.919,4.852,4.852,0,0,0,.818-2.153,34.528,34.528,0,0,0,.206-3.511v-1.645a34.536,34.536,0,0,0-.206-3.511A4.853,4.853,0,0,0,1227.644,2490.508Zm-11.837,10.306v-7.629l6.433,3.815Z" transform="translate(-1208.087 -2489.37)"/></svg>